<svg width="244" height="52" viewBox="0 0 244 52" fill="none" xmlns="http://www.w3.org/2000/svg">
<path fill-rule="evenodd" clip-rule="evenodd" d="M58.3018 13.6483C62.7866 13.6483 66.4265 17.2883 66.4265 21.7733C66.4265 26.2583 62.7866 29.8983 58.3018 29.8983C53.817 29.8983 50.1771 26.2583 50.1771 21.7733C50.1771 17.2883 53.817 13.6483 58.3018 13.6483ZM58.3018 7.86328C65.9715 7.86328 72.2112 14.1033 72.2112 21.7733C72.2112 29.4433 65.9715 35.6834 58.3018 35.6834C50.6321 35.6834 44.3923 29.4433 44.3923 21.7733C44.3923 14.1033 50.6321 7.86328 58.3018 7.86328Z" fill="#0D0D0D"/>
<path fill-rule="evenodd" clip-rule="evenodd" d="M18.717 35.6201H24.9568V21.5801C24.9568 19.37 24.9568 13.585 30.2216 13.585C35.4214 13.585 35.6164 18.655 35.6164 21.5151V35.6201H41.8561V20.15C41.8561 18.2 41.8561 14.495 39.7762 11.83C37.8913 9.42502 34.7064 7.86502 31.7815 7.86502C27.8817 7.86502 25.8018 9.81502 24.9568 10.595V0H18.717V35.6201Z" fill="#0D0D0D"/>
<path fill-rule="evenodd" clip-rule="evenodd" d="M131.621 35.6201H137.861V21.5801C137.861 19.37 137.861 13.585 143.126 13.585C148.326 13.585 148.521 18.655 148.521 21.5151V35.6201H154.76V20.15C154.76 18.2 154.76 14.495 152.681 11.83C150.796 9.42502 147.546 7.86502 144.621 7.86502C140.721 7.86502 138.641 9.81502 137.861 10.595V0H131.621V35.6201Z" fill="#0D0D0D"/>
<path fill-rule="evenodd" clip-rule="evenodd" d="M210.916 5.78501H217.156V0H210.916V5.78501Z" fill="#0D0D0D"/>
<path fill-rule="evenodd" clip-rule="evenodd" d="M210.916 35.6834H217.156V7.86328H210.916V35.6834Z" fill="#0D0D0D"/>
<path fill-rule="evenodd" clip-rule="evenodd" d="M114.138 7.86328H114.333H128.308V13.6483H125.643C127.268 15.9233 128.243 18.7183 128.243 21.7733C128.243 29.4433 122.003 35.6834 114.333 35.6834C106.664 35.6834 100.424 29.4433 100.424 21.7733C100.424 14.1683 106.534 7.99328 114.138 7.86328ZM114.593 13.6483H114.138C109.783 13.7783 106.209 17.3533 106.209 21.7733C106.209 26.2583 109.848 29.8983 114.333 29.8983C118.818 29.8983 122.458 26.2583 122.458 21.7733C122.458 17.4183 118.948 13.7783 114.593 13.6483Z" fill="#0D0D0D"/>
<path fill-rule="evenodd" clip-rule="evenodd" d="M74.7485 7.86328H80.5983V24.0483C80.5983 27.2333 83.1982 29.8333 86.3831 29.8333C89.5679 29.8333 92.1678 27.2333 92.1678 24.0483V7.86328H98.0176V24.0483C98.0176 30.4833 92.8178 35.6834 86.3831 35.6834C80.0133 35.6834 74.7485 30.4833 74.7485 24.0483V7.86328Z" fill="#0D0D0D"/>
<path fill-rule="evenodd" clip-rule="evenodd" d="M220.731 35.6834H226.581V19.4983C226.581 16.3133 229.181 13.7133 232.365 13.7133C235.55 13.7133 238.15 16.3133 238.15 19.4983V35.6834H244V19.4983C244 13.0633 238.735 7.86328 232.365 7.86328C225.931 7.86328 220.731 13.0633 220.731 19.4983V35.6834Z" fill="#0D0D0D"/>
<path fill-rule="evenodd" clip-rule="evenodd" d="M180.888 35.6834H184.788L189.793 17.6133H189.923L194.863 35.6834H198.828L208.512 7.86328H201.688L196.813 24.8283H196.748L192.458 7.86328H187.388L183.033 24.8283H182.903L178.094 7.86328H171.269L180.888 35.6834Z" fill="#0D0D0D"/>
<path fill-rule="evenodd" clip-rule="evenodd" d="M3.05488 0H9.29462V7.86503H13.0645V13.455H9.29462V23.2051C9.29462 26.6501 12.0895 29.4451 15.4694 29.4451V35.6851C8.64465 35.6851 3.05488 30.0951 3.05488 23.2051V13.455H0V7.86503H3.05488V0Z" fill="#0D0D0D"/>
<path fill-rule="evenodd" clip-rule="evenodd" d="M158.916 0H165.155V7.86503H168.925V13.455H165.155V23.2051C165.155 26.6501 167.95 29.4451 171.33 29.4451V35.6851C164.506 35.6851 158.916 30.0951 158.916 23.2051V13.455H155.861V7.86503H158.916V0Z" fill="#0D0D0D"/>
<path fill-rule="evenodd" clip-rule="evenodd" d="M122.458 38.0898C122.458 42.5749 118.818 46.2149 114.333 46.2149C109.848 46.2149 106.209 42.5749 106.209 38.0898H100.424C100.424 45.7599 106.664 51.9999 114.333 51.9999C122.003 51.9999 128.243 45.7599 128.243 38.0898H122.458Z" fill="#FF0000"/>
</svg>
