<svg version="1.2" xmlns="http://www.w3.org/2000/svg" viewBox="0 0 244 52" width="244" height="52">
	<title>Logo-svg</title>
	<style>
		.s0 { fill: #0d0d0d } 
		.s1 { fill: #ff0000 } 
	</style>
	<path id="Layer" fill-rule="evenodd" class="s0" d="m58.3 7.9c7.7 0 13.9 6.2 13.9 13.9 0 7.6-6.2 13.9-13.9 13.9-7.7 0-13.9-6.3-13.9-13.9 0-7.7 6.2-13.9 13.9-13.9zm-8.1 13.9c0 4.5 3.6 8.1 8.1 8.1 4.5 0 8.1-3.6 8.1-8.1 0-4.5-3.6-8.2-8.1-8.2-4.5 0-8.1 3.7-8.1 8.2z"/>
	<path id="Layer" fill-rule="evenodd" class="s0" d="m18.7 35.6h6.3v-14c0-2.2 0-8 5.2-8 5.2 0 5.4 5.1 5.4 7.9v14.1h6.3v-15.5c0-1.9 0-5.6-2.1-8.3-1.9-2.4-5.1-3.9-8-3.9-3.9 0-6 1.9-6.8 2.7v-10.6h-6.3z"/>
	<path id="Layer" fill-rule="evenodd" class="s0" d="m131.6 35.6h6.3v-14c0-2.2 0-8 5.2-8 5.2 0 5.4 5.1 5.4 7.9v14.1h6.3v-15.5c0-1.9 0-5.6-2.1-8.3-1.9-2.4-5.2-3.9-8.1-3.9-3.9 0-6 1.9-6.7 2.7v-10.6h-6.3z"/>
	<path id="Layer" fill-rule="evenodd" class="s0" d="m210.9 5.8h6.3v-5.8h-6.3z"/>
	<path id="Layer" fill-rule="evenodd" class="s0" d="m210.9 35.7h6.3v-27.8h-6.3z"/>
	<path id="Layer" fill-rule="evenodd" class="s0" d="m114.1 7.9h14.2v5.7h-2.7c1.7 2.3 2.6 5.1 2.6 8.2 0 7.6-6.2 13.9-13.9 13.9-7.6 0-13.9-6.3-13.9-13.9 0-7.6 6.1-13.8 13.7-13.9zm0.5 5.7h-0.5c-4.3 0.2-7.9 3.8-7.9 8.2 0 4.5 3.6 8.1 8.1 8.1 4.5 0 8.2-3.6 8.2-8.1 0-4.4-3.6-8-7.9-8.2z"/>
	<path id="Layer" fill-rule="evenodd" class="s0" d="m74.7 7.9h5.9v16.1c0 3.2 2.6 5.8 5.8 5.8 3.2 0 5.8-2.6 5.8-5.8v-16.1h5.8v16.1c0 6.5-5.2 11.7-11.6 11.7-6.4 0-11.7-5.2-11.7-11.7z"/>
	<path id="Layer" fill-rule="evenodd" class="s0" d="m220.7 35.7h5.9v-16.2c0-3.2 2.6-5.8 5.8-5.8 3.2 0 5.8 2.6 5.8 5.8v16.2h5.8v-16.2c0-6.4-5.3-11.6-11.6-11.6-6.5 0-11.7 5.2-11.7 11.6z"/>
	<path id="Layer" fill-rule="evenodd" class="s0" d="m180.9 35.7h3.9l5-18.1h0.1l5 18.1h3.9l9.7-27.8h-6.8l-4.9 16.9h-0.1l-4.2-16.9h-5.1l-4.4 16.9h-0.1l-4.8-16.9h-6.8z"/>
	<path id="Layer" fill-rule="evenodd" class="s0" d="m3.1 0h6.2v7.9h3.8v5.6h-3.8v9.7c0 3.5 2.8 6.2 6.2 6.2v6.3c-6.9 0-12.4-5.6-12.4-12.5v-9.7h-3.1v-5.6h3.1z"/>
	<path id="Layer" fill-rule="evenodd" class="s0" d="m158.9 0h6.3v7.9h3.7v5.6h-3.7v9.7c0 3.5 2.7 6.2 6.1 6.2v6.3c-6.8 0-12.4-5.6-12.4-12.5v-9.7h-3v-5.6h3z"/>
	<path id="Layer" fill-rule="evenodd" class="s0" d="m58.3 7.9c7.7 0 13.9 6.2 13.9 13.9 0 7.6-6.2 13.9-13.9 13.9-7.7 0-13.9-6.3-13.9-13.9 0-7.7 6.2-13.9 13.9-13.9zm-8.1 13.9c0 4.5 3.6 8.1 8.1 8.1 4.5 0 8.1-3.6 8.1-8.1 0-4.5-3.6-8.2-8.1-8.2-4.5 0-8.1 3.7-8.1 8.2z"/>
	<path id="Layer" fill-rule="evenodd" class="s0" d="m18.7 35.6h6.3v-14c0-2.2 0-8 5.2-8 5.2 0 5.4 5.1 5.4 7.9v14.1h6.3v-15.5c0-1.9 0-5.6-2.1-8.3-1.9-2.4-5.1-3.9-8-3.9-3.9 0-6 1.9-6.8 2.7v-10.6h-6.3z"/>
	<path id="Layer" fill-rule="evenodd" class="s0" d="m131.6 35.6h6.3v-14c0-2.2 0-8 5.2-8 5.2 0 5.4 5.1 5.4 7.9v14.1h6.3v-15.5c0-1.9 0-5.6-2.1-8.3-1.9-2.4-5.2-3.9-8.1-3.9-3.9 0-6 1.9-6.7 2.7v-10.6h-6.3z"/>
	<path id="Layer" fill-rule="evenodd" class="s0" d="m210.9 5.8h6.3v-5.8h-6.3z"/>
	<path id="Layer" fill-rule="evenodd" class="s0" d="m210.9 35.7h6.3v-27.8h-6.3z"/>
	<path id="Layer" fill-rule="evenodd" class="s0" d="m114.1 7.9h14.2v5.7h-2.7c1.7 2.3 2.6 5.1 2.6 8.2 0 7.6-6.2 13.9-13.9 13.9-7.6 0-13.9-6.3-13.9-13.9 0-7.6 6.1-13.8 13.7-13.9zm0.5 5.7h-0.5c-4.3 0.2-7.9 3.8-7.9 8.2 0 4.5 3.6 8.1 8.1 8.1 4.5 0 8.2-3.6 8.2-8.1 0-4.4-3.6-8-7.9-8.2z"/>
	<path id="Layer" fill-rule="evenodd" class="s0" d="m74.7 7.9h5.9v16.1c0 3.2 2.6 5.8 5.8 5.8 3.2 0 5.8-2.6 5.8-5.8v-16.1h5.8v16.1c0 6.5-5.2 11.7-11.6 11.7-6.4 0-11.7-5.2-11.7-11.7z"/>
	<path id="Layer" fill-rule="evenodd" class="s0" d="m220.7 35.7h5.9v-16.2c0-3.2 2.6-5.8 5.8-5.8 3.2 0 5.8 2.6 5.8 5.8v16.2h5.8v-16.2c0-6.4-5.3-11.6-11.6-11.6-6.5 0-11.7 5.2-11.7 11.6z"/>
	<path id="Layer" fill-rule="evenodd" class="s0" d="m180.9 35.7h3.9l5-18.1h0.1l5 18.1h3.9l9.7-27.8h-6.8l-4.9 16.9h-0.1l-4.2-16.9h-5.1l-4.4 16.9h-0.1l-4.8-16.9h-6.8z"/>
	<path id="Layer" fill-rule="evenodd" class="s0" d="m3.1 0h6.2v7.9h3.8v5.6h-3.8v9.7c0 3.5 2.8 6.2 6.2 6.2v6.3c-6.9 0-12.4-5.6-12.4-12.5v-9.7h-3.1v-5.6h3.1z"/>
	<path id="Layer" fill-rule="evenodd" class="s0" d="m158.9 0h6.3v7.9h3.7v5.6h-3.7v9.7c0 3.5 2.7 6.2 6.1 6.2v6.3c-6.8 0-12.4-5.6-12.4-12.5v-9.7h-3v-5.6h3z"/>
	<rect width="244" height="52" id="Color Fill 1" style="fill: #ffffff"/>
	<path id="Layer" fill-rule="evenodd" class="s1" d="m122.5 38.1c0 4.5-3.7 8.1-8.2 8.1-4.5 0-8.1-3.6-8.1-8.1h-5.8c0 7.7 6.3 13.9 13.9 13.9 7.7 0 13.9-6.2 13.9-13.9z"/>
</svg>